<svg xmlns="http://www.w3.org/2000/svg" xmlns:xlink="http://www.w3.org/1999/xlink" width="500" height="500" viewBox="0 0 500 500">
  <defs>
    <clipPath id="clip-Slide_1_1">
      <rect width="500" height="500"/>
    </clipPath>
  </defs>
  <g id="Slide_1_1" data-name="Slide 1 – 1" clip-path="url(#clip-Slide_1_1)">
    <rect width="500" height="500" fill="#fff"/>
    <g id="Group_27" data-name="Group 27">
      <rect id="Rectangle_5" data-name="Rectangle 5" width="500" height="500" fill="#fff"/>
      <path id="Path_27" data-name="Path 27" d="M0,0V500H500V0ZM470.714,317.2A26.8,26.8,0,0,1,437,313.794l-.254-.255a56.14,56.14,0,0,0-79.313.02l-.233.234a26.783,26.783,0,0,1-37.915-.038l-.216-.216a56.14,56.14,0,0,0-79.313.02l-.234.234a26.817,26.817,0,0,1-37.9-.02l-.235-.235a56.134,56.134,0,0,0-79.294,0l-.254.254a26.817,26.817,0,0,1-37.9-.02l-.235-.234a56.084,56.084,0,0,0-54.423-14.406V247.748A26.8,26.8,0,0,1,63,251.156l.254.254a56.139,56.139,0,0,0,79.313-.02l.235-.235a26.781,26.781,0,0,1,37.876,0l.254.254a56.139,56.139,0,0,0,79.313-.02l.233-.235a26.815,26.815,0,0,1,37.877,0l.255.254a56.07,56.07,0,0,0,79.313-.02l.233-.235a26.815,26.815,0,0,1,37.877,0l.254.255a55.7,55.7,0,0,0,39.647,16.422,56.384,56.384,0,0,0,14.777-1.973ZM29.286,330.847a26.818,26.818,0,0,1,33.695,3.383l.273.273a56.134,56.134,0,0,0,79.294,0l.254-.254a26.809,26.809,0,0,1,37.858-.02l.273.273a56.134,56.134,0,0,0,79.294,0l.254-.254a26.807,26.807,0,0,1,37.857-.02l.274.273a56.069,56.069,0,0,0,79.293,0l.254-.254a26.807,26.807,0,0,1,37.857-.02l.273.273a55.7,55.7,0,0,0,39.647,16.422,56.378,56.378,0,0,0,14.777-1.973v51.342A26.8,26.8,0,0,1,437,396.886l-.254-.255a56.14,56.14,0,0,0-79.313.02l-.233.235a26.781,26.781,0,0,1-37.915-.039l-.216-.216a56.14,56.14,0,0,0-79.313.02l-.234.235a26.781,26.781,0,0,1-37.9-.02l-.235-.235a56.134,56.134,0,0,0-79.294,0l-.254.254a26.781,26.781,0,0,1-37.9-.02l-.235-.234a56.084,56.084,0,0,0-54.422-14.406ZM470.714,29.286V234.108a26.8,26.8,0,0,1-33.7-3.388l-.272-.273a56.131,56.131,0,0,0-79.294,0l-.254.254a26.783,26.783,0,0,1-37.9-.019l-.235-.234a56.131,56.131,0,0,0-79.294,0l-.254.254a26.814,26.814,0,0,1-37.877,0l-.254-.254a56.068,56.068,0,0,0-79.274-.02l-.273.273a26.814,26.814,0,0,1-37.877,0l-.254-.254a55.7,55.7,0,0,0-39.647-16.423A56.342,56.342,0,0,0,29.285,216V29.286ZM29.286,470.714V413.941a26.818,26.818,0,0,1,33.695,3.383l.273.273a56.068,56.068,0,0,0,79.294,0l.254-.254a26.809,26.809,0,0,1,37.858-.02l.273.273a56.068,56.068,0,0,0,79.294,0l.254-.254a26.808,26.808,0,0,1,37.857-.02l.274.273a56.067,56.067,0,0,0,79.293,0l.254-.254a26.808,26.808,0,0,1,37.857-.02l.273.273a55.7,55.7,0,0,0,39.647,16.423,56.38,56.38,0,0,0,14.777-1.973v38.668H29.286Z"/>
      <g id="Group_25" data-name="Group 25">
        <path id="Path_28" data-name="Path 28" d="M127.987,127.987h29.286v29.286H127.987Z" transform="translate(-3.044 -3.044)"/>
        <path id="Path_29" data-name="Path 29" d="M353.987,127.987h29.286v29.286H353.987Z" transform="translate(-8.42 -3.044)"/>
        <path id="Path_30" data-name="Path 30" d="M241.091,97.987h29.286v29.286H241.091Z" transform="translate(-5.735 -2.331)"/>
      </g>
    </g>
  </g>
</svg>
