<svg id="Capa_1" data-name="Capa 1" xmlns="http://www.w3.org/2000/svg" viewBox="0 0 512 512"><defs><style>.cls-1{fill:#fff;}</style></defs><title>Artboard 1icon</title><circle cx="256" cy="256" r="256"/><path class="cls-1" d="M375.32,287.45c-2.42-42.33,14.42-66.35,14.42-66.35C409.1,55.92,260.82,65.27,260.82,65.27s-148.31-9-128.59,156.12c0,0,16.9,24,14.57,66.31l-10.93,13s-5.77,6.79-2.85,14.81c0,0,6.67,16,5.56,30.61,0,0-1.83,9.12,8.22,11.34.36.06.74.14,1.13.18,11.3,1.79,19.53,7.54,17.31,17.3,0,0-1.31,14.91,14.46,9.34l12.65-10.89s6.65-5.79,15.74,2.41L219,382.91s3.75,3.54,3.76,6.45c0,0-9.83,5.8-4.12,15,.12.16.22.34.37.53,3.15,4.64,3.46,8,3,10.29a6.43,6.43,0,0,1-1.9,3.45,23.55,23.55,0,0,0-.69,3.92c-.92,8.92,1.23,30.1,41.82,31.11,39.29-1.06,42.51-20.93,41.81-30.32a24.22,24.22,0,0,0-.8-4.81,5.53,5.53,0,0,1-1.39-2c-1-2.09-1.48-5.92,2.48-11.8l.34-.52c5.71-9.24-4.12-15-4.12-15,0-2.91,3.75-6.46,3.75-6.46l10.88-7.09c9.09-8.23,15.75-2.47,15.75-2.47l12.67,10.89c15.79,5.51,14.42-9.38,14.42-9.38-2.23-9.76,6-15.53,17.29-17.33.39,0,.76-.13,1.12-.19,10.06-2.25,8.19-11.37,8.19-11.37-1.11-14.64,5.52-30.62,5.52-30.62,2.88-8-2.9-14.81-2.9-14.81ZM207.55,333.08,182.4,333c-15.69,1.5-20.75-8.86-20.75-8.86-10.08-27.22,2.61-51.21,2.61-51.21,13.89-16,39.06,0,39.06,0,23.41,16.8,38.81,10.9,38.81,10.9,8.27-1.79,7.11,13,7.11,13C248.69,332,207.55,333.08,207.55,333.08ZM270.82,378l-9.66-7.53L251.52,378c-19-9.1-9.69-22.42-9.69-22.42,7.09-9.32,10.19-21.1,10.19-21.1a13.82,13.82,0,0,1,9.08-10.42,13.81,13.81,0,0,1,9.12,10.39s3.12,11.79,10.24,21.09C280.47,355.55,289.79,368.84,270.82,378Zm43.88-45s-41.16-1-41.77-36.21c0,0-1.21-14.81,7.08-13,0,0,15.39,5.86,38.75-11,0,0,25.16-16,39.09,0,0,0,12.76,23.95,2.72,51.19,0,0-5,10.39-20.7,8.91Z"/></svg>