<?xml version="1.0" encoding="utf-8"?>
<!-- Generator: Adobe Illustrator 21.0.2, SVG Export Plug-In . SVG Version: 6.00 Build 0)  -->
<svg version="1.1" id="Capa_1" xmlns="http://www.w3.org/2000/svg" xmlns:xlink="http://www.w3.org/1999/xlink" x="0px" y="0px"
	 viewBox="0 0 512 512" style="enable-background:new 0 0 512 512;" xml:space="preserve">
<style type="text/css">
	.st0{fill:#AAAAAA;}
</style>
<g>
	<path class="st0" d="M256,0C114.6,0,0,114.6,0,256s114.6,256,256,256s256-114.6,256-256S397.4,0,256,0z M309.3,396.7
		c-13.2,5.2-23.7,9.1-31.5,11.9c-7.8,2.7-17,4.1-27.3,4.1c-16,0-28.4-3.9-37.2-11.7c-8.8-7.8-13.2-17.6-13.2-29.6
		c0-4.7,0.3-9.4,1-14.3c0.7-4.9,1.7-10.3,3.2-16.4l16.5-58.3c1.5-5.6,2.7-10.9,3.7-15.8c1-5,1.5-9.6,1.5-13.7
		c0-7.4-1.5-12.6-4.6-15.5c-3.1-2.9-8.9-4.4-17.6-4.4c-4.2,0-8.6,0.6-13.1,2c-4.4,1.4-8.3,2.6-11.5,3.8l4.4-17.9
		c10.8-4.4,21.1-8.2,31-11.3c9.9-3.2,19.2-4.7,28-4.7c15.8,0,28.1,3.9,36.7,11.5c8.6,7.7,12.9,17.6,12.9,29.8c0,2.5-0.3,7-0.9,13.4
		c-0.6,6.4-1.7,12.2-3.3,17.6l-16.4,58.1c-1.3,4.7-2.5,10-3.6,16c-1.1,6-1.6,10.5-1.6,13.6c0,7.7,1.7,13,5.2,15.8
		c3.4,2.8,9.4,4.2,17.9,4.2c4,0,8.5-0.7,13.6-2.1c5-1.4,8.7-2.6,11-3.7L309.3,396.7z M306.4,161c-7.7,7.1-16.9,10.7-27.6,10.7
		c-10.7,0-20-3.6-27.7-10.7c-7.7-7.1-11.6-15.8-11.6-25.9c0-10.1,3.9-18.7,11.6-25.9c7.7-7.2,17-10.8,27.7-10.8
		c10.8,0,20,3.6,27.6,10.8c7.7,7.2,11.5,15.8,11.5,25.9C317.9,145.3,314,153.9,306.4,161z"/>
</g>
</svg>
